<svg id="Layer_1" data-name="Layer 1" xmlns="http://www.w3.org/2000/svg" viewBox="0 0 474.29 415.1"><defs><style>.cls-1,.cls-2{fill:#8b8b8b;}.cls-2{font-size:228.58px;font-family:SUBSCRIBER-Regular, SUBSCRIBER;}</style></defs><title>1world</title><path class="cls-1" d="M159.48,166.33a86.09,86.09,0,1,0,86.09,86.08A86.08,86.08,0,0,0,159.48,166.33Zm18.34,148.08c-7.45-1.31-21.92.44-24.55,1.32s-5.7,5.7-12.28,5.26,1.32.88,1.76-3.07S130,320.55,130,320.55s1.76-5.7,6.14-6.14,11.4-3.5,11.4-8.33,3.07-13.59,2.63-17.09,1.32-4.39,3.07-5.7,3.07-8.77-2.19-14.47.44,0,.87-3.07-5.26-16.66,0-22.36,13.59,11,13.59,11-.43-12.27-13.15-14c0,0,3.07-16.22,0-18L155,218.4l-5.26,3.07-8.33.44s-2.63,1.75-2.19,3.07-.88,1.75-6.14,0-13.59-4.39-15.34-3.95-1.76-3.94-.44-4.82-3.07-2.63-3.07-2.63.44-4.82,1.75-4l1.32.88s3.07-4.38.44-7.45c0,0,16.22-.44,17.53-2.19s-1.31-2.2-1.31-2.2l2.63.44,3.07-.87.44-2.63s.87,3.06,2.19,3.06,6.58-1.75,6.58-1.75-2.64-4.38-1.32-4.82,4.38-1.76,4.38-1.76S155,189,155,184.64s-5.26-2.63-5.26-2.63l1.32-2.19s22.36,3.07,25.42,1.76,3.07,8.76,3.07,11.83-1.31,18.85-.87,22.8,3.07,8.77,3.07,8.77-2.63-3.95-2.63-2.19.87,7,.87,7a100.71,100.71,0,0,0-.44,10.08c0,6.14,1.76,7.46,2.63,10.09s-3.5,6.13-2.19,6.57.44,4.83.44,4.83-1.75,1.31-1.75,5.7,0,17.09.44,21.48,0,17.53,3.06,20.16S185.27,315.73,177.82,314.41Z" transform="translate(-73.4 -141.19)"/><text class="cls-2" transform="translate(180.25 193.38) scale(1.89 1)">NE</text><text class="cls-2" transform="translate(4.84 377.39) scale(1.12 1)">WORLD</text></svg>