<svg id="Layer_1" data-name="Layer 1" xmlns="http://www.w3.org/2000/svg" viewBox="0 0 469.16 355.91"><defs><style>.cls-1{fill:#7fa7d8;}.cls-2{fill:#357639;}.cls-3{fill:#f89922;}</style></defs><title>1world2</title><circle class="cls-1" cx="86.09" cy="86.09" r="86.09"/><path class="cls-2" d="M117.76,203.06s16.22-.44,17.53-2.19-1.31-2.2-1.31-2.2l2.63.44,3.07-.87.44-2.63s.87,3.06,2.19,3.06,6.58-1.75,6.58-1.75-2.64-4.38-1.32-4.82,4.38-1.76,4.38-1.76S155,189,155,184.64s-5.26-2.63-5.26-2.63l1.32-2.19s22.36,3.07,25.42,1.76,3.07,8.76,3.07,11.83-1.31,18.85-.87,22.8,3.07,8.77,3.07,8.77-2.63-3.95-2.63-2.19.87,7,.87,7a100.71,100.71,0,0,0-.44,10.08c0,6.14,1.76,7.46,2.63,10.09s-3.5,6.13-2.19,6.57.44,4.83.44,4.83-1.75,1.31-1.75,5.7,0,17.09.44,21.48,0,17.53,3.06,20.16,3.07,7-4.38,5.7-21.92.44-24.55,1.32-5.7,5.7-12.28,5.26,1.32.88,1.76-3.07S130,320.55,130,320.55s1.76-5.7,6.14-6.14,11.4-3.5,11.4-8.33,3.07-13.59,2.63-17.09,1.32-4.39,3.07-5.7,3.07-8.77-2.19-14.47.44,0,.87-3.07-5.26-16.66,0-22.36,13.59,11,13.59,11-.43-12.27-13.15-14c0,0,3.07-16.22,0-18L155,218.4l-5.26,3.07-8.33.44s-2.63,1.75-2.19,3.07-.88,1.75-6.14,0-13.59-4.39-15.34-3.95-1.76-3.94-.44-4.82-3.07-2.63-3.07-2.63.44-4.82,1.75-4l1.32.88S120.39,206.13,117.76,203.06Z" transform="translate(-73.4 -166.33)"/><path class="cls-3" d="M367.69,334.1c-.87-.91-1.73-1.37-3.89-1.37-3.46,0-5.62-1.14-6.48-2.74-1.3-1.83-1.73-3.66-3-5.49-4.76-8.22-9.51-16.68-14.69-24.91-6.91-11.2-12.53-22.63-18.15-34.29l-16.41-35.88c0-.23-.43-.46-.86-1.15a35.12,35.12,0,0,0-1.3,13.26l.86,36.12c0,6.4-.43,12.57-.43,18.74a82.38,82.38,0,0,0,.43,10.29l.87,14.17v2.28c-.43,3.43-3,6.17-8.64,7.77a59.16,59.16,0,0,1-16.42,2.75,1.23,1.23,0,0,1-.86.23c-6.91-.46-11.23-1.15-11.67-5.95-.43-8.68-.86-17.37-.86-26.05l-.43-2.75c.86-16.68-.87-33.37-1.73-50.06a108.84,108.84,0,0,1,.43-16.68c.43-2.52,0-5,.87-7.55L267.47,213c.86-3.2.43-6.4,1.29-9.6.87-5,0-9.83,2.16-14.63,0-1.14-.43-2.29-.43-3.2,0-1.6,1.3-2.51,3.46-3.43,5.61-2.51,12.52-3,19.87-1.6a84.5,84.5,0,0,1,8.64,1.6,14.31,14.31,0,0,1,5.18,2.74,7.21,7.21,0,0,0,1.73,2.06c8.64,5.94,13,12.8,17.71,19.66,7.34,10.06,11.67,20.57,17.28,31.09,2.59,4.57,4.32,9.37,6.91,13.94a6.6,6.6,0,0,0,2.16,3,82.38,82.38,0,0,1-.43-10.29c-.43-4.11.43-8.45.43-12.57,0-.91.43-1.6.43-2.28-.43-5.26.87-10.29,1.3-15.32l2.59-11.88a45.16,45.16,0,0,1,1.73-7.78,33.52,33.52,0,0,0,1.73-11.2c0-1.14-.43-2.05,0-3.2s2.16-1.6,3.89-1.83c6-.22,11.23.46,15.55,2.52a14.78,14.78,0,0,1,3.45,2.74,53.29,53.29,0,0,1,4.76,13,74.84,74.84,0,0,0,2.59,13.94V213a114,114,0,0,1-.43,12.11c0,.46-.44,1.15-.44,1.83l.44,22.86c0,4.11-.44,8.23,0,12.34l2.16,35a75,75,0,0,1,.43,13.94,67.72,67.72,0,0,1-1.73,16.23c-.86,2.05-1.73,4.11-4.75,5.48a53.29,53.29,0,0,1-13.39,3C371.58,335.7,369,335.48,367.69,334.1Z" transform="translate(-73.4 -166.33)"/><path class="cls-3" d="M443.28,335.93c-15.12-3-23.76-8.91-27.65-16.91a32.38,32.38,0,0,1-3.46-15.32V255.47h.44c0-6.4-.44-12.8,0-19.2,0-10.51.43-21,.86-31.77.43-5,.43-10.06,1.3-15.31,0-2.75,1.29-5.49,3-8.23,1.73-2.06,4.32-3.43,10.37-3.2a14.32,14.32,0,0,1,3,.45,83.15,83.15,0,0,0,15.12.46c6.48-.68,13,0,19.87.23,7.78.46,15.12,1.14,22.9,1.14a27.64,27.64,0,0,1,11.23,2.06,6.62,6.62,0,0,1,2.59,1.6c1.73,1.83.44,3.66-3.45,4.12-3,.22-6.05.45-9.51.45-9.93.23-19.87.23-29.8.23-2.16,0-3.89.23-6.05.23-2.16.23-2.59.69-2.59,1.6,1.29,6.17,0,12.34-.44,18.51-1.29,14.4,0,28.58-.43,43V253c0,.69.87,1.14,2.16,1.14a29.94,29.94,0,0,0,4.75-.23c6.92,0,13.4-.22,20.31-.22a44.09,44.09,0,0,1,17.71,3.65,12.73,12.73,0,0,1,3.45,1.83c1.73,1.6.44,3.2-3,3.43l-10.8.69c-10.37.68-20.73,1.37-31.1,2.28-2.59.23-3,.46-3,1.83,0,4.57.44,9.14.44,13.71v25.61a25.11,25.11,0,0,0,3.45,12.11,23.39,23.39,0,0,0,7.35,6.4c4.32,2.74,9.93,3.43,16,3,7.34-.46,15.12-.91,22.46-1.6l7.78-.68a67.76,67.76,0,0,1,12.09-1.15,31.19,31.19,0,0,1,8.21,1.37c3.46,1.15,3.89,2.75,1.3,4.12a24,24,0,0,1-6.05,2.28,104.28,104.28,0,0,1-15.12,2.75A324.73,324.73,0,0,1,464,338,118.77,118.77,0,0,1,443.28,335.93Z" transform="translate(-73.4 -166.33)"/><path class="cls-3" d="M99.31,511.49a30.14,30.14,0,0,1-5.65-8.23,94.8,94.8,0,0,1-5.14-17.14,224.15,224.15,0,0,1-2.83-22.63c0-4.11-.77-8.23-1-12.34l-.77-18.52c-.26-6.17-.51-12.11-.51-18.28q0-12.69.77-25.38a105.41,105.41,0,0,0,0-12.57,96.89,96.89,0,0,1,.25-12.11c.26-3.2,2.32-4.57,5.91-4.8a20.14,20.14,0,0,1,11,1.83c3.86,1.6,5.91,4.34,5.91,8.45-.25,8,.26,15.77-.25,23.77-.26,7.55-.26,15.09-.52,22.63,0,5,.52,10.06.52,15.09,0,3,0,5.94.25,8.69.26,5.94.77,11.88,1.29,17.6l.77,11.88c.26,3.43.77,6.86,1.28,10.06A93.69,93.69,0,0,0,114,494.58c.77,2.28,1.79,4.57,2.82,6.85a38.88,38.88,0,0,0,2.83,4.12c2,2.28,2.82,2.74,4.37-.69a23.76,23.76,0,0,0,2.82-8.46,103.47,103.47,0,0,0,2.06-12.34,164.79,164.79,0,0,0,2.31-27.43c-.26-6.4.26-12.8.26-19.2l.77-14.86v-3.65c-.26-5.26-.51-10.29-.51-15.32,0-3.88.51-7.54.77-11.2a49.36,49.36,0,0,1,.51-6.17c.26-5.71.77-11.43,1.54-16.91,0-1.83.77-3.43,1.29-5.26a4.22,4.22,0,0,1,2.82-2.52,12.26,12.26,0,0,1,9,0,5.86,5.86,0,0,1,2.82,1.83,9.51,9.51,0,0,1,2.32,6.4l.77,20.57c0,3-.26,6-.52,8.69v16c-.25,5.72,0,11.43-.25,17.14-.26,6.18-.52,12.35-.52,18.75a1.84,1.84,0,0,1-.26,1.14c-.51,3.66.26,7.09.78,10.52a51.16,51.16,0,0,1,.51,6.17c.51,3,.77,5.94,1,9.14a94.61,94.61,0,0,0,3.6,16.91c1.28,2.75,2.56,5.49,4.88,7.55,2.31,2.28,5.39,3.2,8.48,3.65.51,0,1.54-.22,1.8-.68a23.88,23.88,0,0,0,2.05-3.43,44.41,44.41,0,0,0,2.83-11.43c.51-6.17,1.28-12.34,1.8-18.74v-.92c.25-11.2,1.54-22.63,1-32.45,0-8.23-.25-14.86,0-21.49,0-5,.26-9.83.52-14.86.51-4.8.77-9.83,1.8-14.86.77-4.8,1-9.82,1.54-14.85.26-3,.51-5.72.51-8.46,0-1.37.52-2.51,2.06-2.74a10.88,10.88,0,0,1,3.85-.23,27.5,27.5,0,0,1,8.74,2.74,5.94,5.94,0,0,1,3.34,5.72c-.26,4.8,0,9.6,0,14.4,0,10,.26,19.88-.26,29.94,0,5,.26,9.83.26,14.63-.26,5,0,9.83,0,14.86,0,6.4.26,12.8,0,19a246.12,246.12,0,0,1-2.57,27.66c-.51,2.74-1,5.48-1.8,8.22-2.31,8-8,13-16.44,15.78a45,45,0,0,1-23.39,1.82c-5.14-1.14-10-2.51-14.39-5.48-1.28-.92-1.28-.92-2.31,0-6.94,6.17-15.67,8.46-25.18,8.46C110.1,518.58,103.93,516.29,99.31,511.49Z" transform="translate(-73.4 -166.33)"/><path class="cls-3" d="M231.64,510.12a26.25,26.25,0,0,1-5.91-8.46,100.84,100.84,0,0,1-6.68-19.2,203.83,203.83,0,0,1-3.6-21.26l-1.29-11.88a153.77,153.77,0,0,1,.52-18.75l.51-8.22a190.26,190.26,0,0,1,2.57-20.58l2.57-13.48a129.33,129.33,0,0,1,6.43-17.37c2.57-5.49,6.93-8.92,13.36-10.52a12.78,12.78,0,0,1,4.11-.68,63,63,0,0,1,9.25-.92,34.49,34.49,0,0,1,14.39,3,24.78,24.78,0,0,0,3.85,1.15,12.2,12.2,0,0,1,7.2,4.57,48.9,48.9,0,0,1,2.82,5,81.31,81.31,0,0,1,7.71,24.22c.52,5.72,1.29,11.21,2.06,16.92a95.6,95.6,0,0,1,.51,19.2l.26,2.06c1,7.54-1,15.08-2.06,22.85-1.54,11.43-4.62,22.63-7.7,33.61a42.82,42.82,0,0,1-4.63,10.51c-4.88,8.23-12.33,13-22.61,14.63C246.54,517.89,238.32,516.29,231.64,510.12Zm22.87-6.86a45.87,45.87,0,0,0,4.37-8.68c3.08-8.92,5.91-17.83,7.19-27,1-7.08,2.57-14.17,2.83-21.25.25-6.63.25-13.49.25-19.89l-1.28-15.54-2.31-16.46c-.26-1.83-.77-3.66-1-5.49-1.54-6.4-4.63-12.34-6.94-18.74-.51-1.14-1-1.37-2.06-.69-2.82,1.38-5.13,3.2-6.16,5.72-1.54,3.66-3.09,7.31-4.37,11.2-2.06,6.17-2.57,12.8-4.11,19.2-1.8,7.77-2.06,15.54-2.57,23.54l-.51,8.46c-.78,6.63-.26,13.26.51,19.89a173.81,173.81,0,0,0,3.08,20.11,80,80,0,0,0,6.68,19.89c.77,2.05,2.32,3.88,3.6,5.71C253,504.86,253.48,504.86,254.51,503.26Z" transform="translate(-73.4 -166.33)"/><path class="cls-3" d="M364.23,515.6l-14.14-28.34c-2.82-5.71-5.65-11-8.22-16.46l-2.31-5a1,1,0,0,0-1.54-.46,30,30,0,0,1-7.71,2.51c-.52,0-.77.46-1,.92-.26.68,0,1.14,0,1.83L329,485.66h-.25l-.26,12.8c-.51,4.12-.77,8.23-1,12.34a6.53,6.53,0,0,1-3.85,5.49,28.64,28.64,0,0,1-12.34,3,22,22,0,0,1-3.85-.46c-2.31-.68-3.34-1.82-3.34-3.88.77-6.86,1.28-13.49,1.54-20.34v-1.83c.26-16.23.51-32.23,1-48.46,0-6.4,0-12.57-.26-18.74a124.25,124.25,0,0,0-.51-16.92c0-6.17-.52-12.34-1-18.51-.51-7.78-.77-15.55-.51-23.32,0-2.74.77-3.88,3.59-4.34l8-2.29c3.85-.91,7.71-.68,11.56-.45a64.88,64.88,0,0,1,9.77,1.6,38.92,38.92,0,0,1,7.45,2.05c4.88,1.83,9.25,3.66,13.87,5.72a58.1,58.1,0,0,1,10.54,6.17A33.26,33.26,0,0,1,382,395.14a48.64,48.64,0,0,1,.77,18.29,63.86,63.86,0,0,1-4.63,16.92c-1.54,3.2-3.08,6.62-4.88,9.6a47.69,47.69,0,0,1-12.59,13.48c-1.8,1.14-1.8,1.14-1,2.74,3.6,8,8,16,12.08,23.78,2.31,4.11,4.37,8.23,6.42,12.34l8,16.23a8.14,8.14,0,0,1,1,4.11,5.48,5.48,0,0,1-2.57,4.58,18.14,18.14,0,0,1-6.94,2.74c-2.31.45-4.63.91-7.2.23C367.31,519.49,365.25,518.12,364.23,515.6Zm-29.3-63.54a36.6,36.6,0,0,0,14.65-12.34A64.63,64.63,0,0,0,356,426.46,49.39,49.39,0,0,0,359.34,413c.78-6.62,1-13.25-.51-19.88-2.31-9.15-7.71-15.55-17.47-19.43-2.32-.92-4.63-1.6-6.94-2.74-2.06-.92-4.11-.92-6.17-1.38-.77-.22-1,.23-1.28.69v1.14c.51,6.63.51,13,1,19.43l.51,10.06c.26,5.94,1,12.11,1.28,18.06,0,8.45,0,16.91.26,25.37a68.69,68.69,0,0,0-.26,7.31,5.62,5.62,0,0,0,.26,2.06c0,.46.52.69.77.46C332.36,453.43,333.65,452.75,334.93,452.06Z" transform="translate(-73.4 -166.33)"/><path class="cls-3" d="M403.54,517a5.55,5.55,0,0,1-4.11-5.72c.26-3.43.26-6.63.51-10.06.26-5.48.77-11.2,1-16.68.26-10.74.26-21.49.51-32,0-9.6,0-19.2.26-28.57,0-8.69.51-17.38.77-26.06.26-3.89,0-8,0-11.89-.26-7.31-.51-14.63.26-21.71a3.28,3.28,0,0,1,2.57-3.2,22.31,22.31,0,0,1,3.6-.46c4.88.46,9.25,1.6,12.84,4.34a5.54,5.54,0,0,1,3.09,5.72c-.26,3.2,0,6.4,0,9.37h-.26c.26,7.31.77,14.4.77,21.48,0,5-.26,10.06-.51,15.09v21.72c0,9.82,0,19.88-.26,29.71,0,6.63-.26,13.26-.51,19.66-.26,3.88-.77,7.77-1,11.88a60.6,60.6,0,0,0-.26,6.86c0,1.6.26,1.83,1.8,1.83a38.45,38.45,0,0,0,5.14-.23c3.34-.23,6.68-.46,10-.91a39.49,39.49,0,0,1,11.56.68,8.47,8.47,0,0,1,3.34,1.37c1.55.92,1.55,2.29.26,3.43a4,4,0,0,1-2.31,1.6,25,25,0,0,1-5.4,1.83,75.53,75.53,0,0,1-9.76,1.15c-4.63.45-9,.91-13.62,1.14s-9.51.23-14.13,0A20.11,20.11,0,0,1,403.54,517Z" transform="translate(-73.4 -166.33)"/><path class="cls-3" d="M474.46,520.18a20.88,20.88,0,0,0-3.34-1.38c-2.06-.68-3.34-2-3.34-4.11a16.3,16.3,0,0,1,0-5c.25-4.34.77-8.46,1-12.57,1-10.74.52-21.26,1-31.77.26-8.92.26-17.83.52-26.75l.77-19.65c.25-6.63.25-13.26.51-19.89.26-4.34.26-8.46.51-12.8.26-3.2.78-6.4,1-9.37a11.53,11.53,0,0,0,.26-3c.26-2.06.26-1.83-1.8-2.75a39.41,39.41,0,0,1-4.11-2.51c-1.54-1.6-1.8-3-.26-4.8a9.53,9.53,0,0,1,4.63-3.43A23,23,0,0,1,484.22,359c1.8.23,3.6.46,5.66.91a53.69,53.69,0,0,1,11.82,3.43c9.76,4.8,18,11,24.41,19A87.7,87.7,0,0,1,540,411.83c1.54,5.72,2.06,11.66,2.57,17.6a105.33,105.33,0,0,1-2.83,20.12,151,151,0,0,1-10.53,27.65A163.22,163.22,0,0,1,514,501.43a69.21,69.21,0,0,1-17.22,16.46,29.24,29.24,0,0,1-3.34,2.29,17.29,17.29,0,0,1-6.94,2.05C482.42,522.23,478.31,522,474.46,520.18ZM494.24,493A185.06,185.06,0,0,0,514,454.57a121.56,121.56,0,0,0,6.42-26.51,80.88,80.88,0,0,0-2.05-27.2,57.6,57.6,0,0,0-10.28-20.34c-2.06-2.52-4.37-5-7.71-6.4-2.83-1.15-5.91-2.29-9-3.2-1-.23-1.29,0-1.29.91,1,4.57,1.8,9.14,2.57,13.71,1,5,1,9.83,1.29,14.86,0,3.2-.26,6.63-.26,9.83,0,11.43,0,22.86-.26,34.06,0,9.83-.25,19.43-.51,29.26,0,5,0,10.05-.26,14.85,0,2.06-.26,4.12-.26,6.18a1,1,0,0,0,.52.22A8.09,8.09,0,0,1,494.24,493Z" transform="translate(-73.4 -166.33)"/></svg>