<svg id="Layer_2" data-name="Layer 2" xmlns="http://www.w3.org/2000/svg" viewBox="0 0 274.37 508.78"><defs><style>.cls-1{fill:#f89922;}</style></defs><title>animal-collage</title><path class="cls-1" d="M241.06,156.34s-14.13,8.59-17,11.45-.71,27.92-.71,27.92c-5.73,2.14-6.44,31.49-6.44,31.49a16.87,16.87,0,0,1,4.29,8.59c.72,5-4.29,36.5-5.73,49.39s3.58,31.49,3.58,31.49,4.3,10.73,5.73,13.6-8.59,35.79-10,37.93-19.33,50.1-37.94,61.56c0,0-4.29,5,4.3,2.86s37.22-45.09,37.93-48.67S230.51,361,232.65,346l10.74,9.31s-10.74,62.27-50.1,79.45c0,0,0,2.14,10-.72s25.05-16.46,35.07-35.07a196.11,196.11,0,0,0,14.31-32.92s5.73,2.86,6.45,5.72l4.3,8.17c2,4.65,6.43,42.54,6.43,42.54,1.61,3.75,3.22,53.09,3,54.52s-2.14,5.18-2.14,5.18c-.18,1.07-7.33,6.61-8.22,8.22s1.78,2.68,1.78,2.68a9.18,9.18,0,0,1,1.43,3.22,33.32,33.32,0,0,0,1.61,5l.36-3.4c1.25-3.58,4.11-5.18,4.47-4.29s-1.61,6.79-2.33,9.12-.35,9.83-.35,9.83c-.9.53-15,14.65-15,14.65-1.07,3.22-7.86,8.94-7.86,8.94S232,550.29,231.27,551s-16.45,14-16.45,14A58,58,0,0,0,207,574.6c-3.22,5.18-1.25,5.54-1.25,5.54l12.69-6.61,9.29-.9a2.09,2.09,0,0,0-.53-2.68c-1.43-1.07-.36-4.11.17-3.57s2.86.18,2.86.18,25.56-14.84,29.14-18.06,20-9.83,20-9.83l9.47-.18c4.65.54,12,3.94,12,3.94l.89-.36,2.32,1.79s3.94-1.43,3.58-4.29-3-7.69-3-7.69c-.18-.89-6.26-7.86-6.26-7.86a90.31,90.31,0,0,1-8.22-11.62s4.47-19.49,5.54-20.92,2-5,3.22,2a22.87,22.87,0,0,1-.54,4.29c-.35.72,1.61-1.43,3.22-6.61s4.47-4.47,4.47-4.47,4.29,4.11,4.29,4.65,1.79,1.25,1.25-2.69.18-4.64-2.68-7.14-7.51-5.37-7.51-6.62,2.33-8.4,2.33-8.4,6.25-20.38,9.65-24.31c0,0,1.07-3,2.5.36a18.42,18.42,0,0,1,1.43,3.57c0,.72.72,2.86,2.15,2.86a7.65,7.65,0,0,0,3.39-1.43s3.75-2.32,5.72-2.5c0,0,.72-8.22-2.5-15.37s-3.75-6.79-3.58-12,5.9-29.5,5.9-29.5l1.88-3c3,.1,10.06-3.18,11.93-3.42s3.29-1,5.68-1.67,8.82-4.63,12.07-6,1.94.32,1.94.32c-3.68,12.16-3.24,16.38-3.24,16.38-.44,2.53,2.05,13.24,2.05,13.24-3.42,7.46-4.07,16.58-4.07,16.58-3.29,4-4.13,9.45-4.37,9.77s-.13,6.48-.13,6.48c.15,2,1.42,1.44,2,1.74s6.75-4.56,6.75-4.56,3.49-1.68,14.76-17.75,12.26-24.74,12.26-24.74c1-23.89-9-26.71-9-26.71l-.1-.75s7-9.73,7.4-12.15-1.07-8.42-1.07-8.42c1.64-.59,12.84,1.51,12.84,1.51l7.71-.6s6,.1,9.79-1.53,8.71-6.23,8.71-6.23l1.24-.73a11.6,11.6,0,0,0,4.35-1.69,11.65,11.65,0,0,0-1.07-9.94s1-1.45-6.22-4.82-16-1.29-16-1.29a26.81,26.81,0,0,0-9.24,2.12l-.95.78s-2.77,1.4-3.16,1.26-8.16-2.1-8.16-2.1l-2.18-2.2,3.39-4.8a24.35,24.35,0,0,0,2.48-15.62s0-17.2-12.52-20.84-19.75-1.3-21.19-1.41-4.64,1.64-4.64,1.64a5.82,5.82,0,0,0-.22,2c0,1.52,12.69,13.89,12.69,13.89a10.22,10.22,0,0,1,.86,1.5,50.62,50.62,0,0,1-.21,5.07c-1.12-.53-9.92-1.79-19.26-1.93,0,0-7.09.07-9.3,1.33-4.81,2.74-12.48-3.49-12.48-3.49a77,77,0,0,1-11.92-12l0,.61c1.54,8.2-3.57.53-3.57.53a77.12,77.12,0,0,1-1.81,16.82l-.09.44s-1.53,9.76-6.94,10.94c-2.49.55-7.81,5.24-7.81,5.24-6.83,6.35-12.54,13.18-13,14.32a49.51,49.51,0,0,1-3.55-3.62,10.53,10.53,0,0,1-.37-1.7s1.15-17.67.14-18.81l-.26-12.43c-.13-5.65,2.37-7.76,3.44-9.53s3.87-3.05,2.17-2.61-5.93,3.31-10,3.51-4.21-1-4.21-1l-1.19-3-.7-.68s-1.36-4.3-1.78-4.62a7.32,7.32,0,0,1-1-1c-1.7-5.73-4.1-6-4.1-6-1.72-4-7.78-5.9-7.78-5.9l-2.42-1.62s-9.18-7.73,9.65-9.87,46.2,16.95,46.2,16.95-.18-1.68.24-1.93-3.27-4.92-3.27-4.92-4.15-6.57-4.59-9.29,1.57,2.43,1.57,2.43,5.38,10,6.86,10.75,1.34-.88,1.34-.88a79,79,0,0,0-2.42-15.08s-.46-2.21,1.1,1.67,2.13,14.26,2.13,14.26l.59.51a2,2,0,0,1,.8,1.06s9.44-32,25.48-42.1S345,228.61,345,228.61l-.87,2.77s-3.56,5.26-2.39,9.47c0,0-1.72,1.69.53,7.22a7,7,0,0,1-.11,1.43c-.14.51,1.5,4.71,1.5,4.71l-.13,1,.93,3.07,1.59,2.32s13.66,6.15,16.49,6.52a14.53,14.53,0,0,0,7.76-1.47,7.76,7.76,0,0,0,3-4.68,16.7,16.7,0,0,0-.37-6.4,10.2,10.2,0,0,1,.62-5.66s2.21-2.71,3.2-3.08a1.66,1.66,0,0,0,.12-2.34s-1.6-1.48-1.47-2.71a2.87,2.87,0,0,1,2.46-2.34,2.61,2.61,0,0,0,2.09-2.09,9.92,9.92,0,0,0-1.11-1.84,7.43,7.43,0,0,1-1.11-5.3c.37-2.21,4.19-3.57,4.19-3.57s3.2-1.23,3.69-2.7a5.55,5.55,0,0,0,.74-3.94c-.49-2.09-2.83-3.82-4.92-7.76s-5.42-8.24-5.54-9-1.48-5.17-1.73-5.66.25-4.31.25-4.31a53.23,53.23,0,0,0,.37-8.12,145.92,145.92,0,0,0-3.45-16,22.74,22.74,0,0,0-11.69-13.68l2.79-1.81c4.2-1.35,7.73-3,9.76-5,0,0,6.65.73,10-3.45a24.25,24.25,0,0,1-2.41-2.57c-.2-.44,4,.15,5.17-.19s5.08-2.52,5.32-4.83c0,0-3.45-.35-7.49-4.78,0,0-1.23-1.38,1.23-.64s8.58,2.36,10.65,1.13,4.24-2.27,5.81-6.46c0,0-.19-1.08,3.65-3.25a18.94,18.94,0,0,0,3-6.16,5.56,5.56,0,0,1,1.48-1.77c1-.84,3.54-1.73,3.79-4,0,0-5.08,0-7.88-.09a8.51,8.51,0,0,1-5.48-1.93c-.83-.83,5.62-.44,5.87-.59s17.35-2,21.44-7.83a2.08,2.08,0,0,0,.29-3s7.49-2.27,6.95-6.36l-17.89,4.39s-1,.29-.39-.64S432.48,83.3,432.48,83.3s-.84-1.58-2-1.87-14,9.41-30.66,12a13.46,13.46,0,0,1-4,0c-1.13-.4.39-1.19.39-1.19s15.23-6.9,21.84-12.47,7.14-6.5,7.14-6.5.89-1.48-.74-1.82a7,7,0,0,0-3.45,2c-1.92,1.77-20.35,14.39-31.44,18.13s-17.35,7.15-36,9.81c0,0-7.84,1.18-8.58,3.1,0,0-8.87,3.85-15.38,4.74s-17.44-1.48-17.44-1.48l-3.65-5.74s-3.5-7.68-3.9-13.35-3.55-8-3.55-8c-5.27-4.23-9.8.15-10.34.69a6.15,6.15,0,0,0-.94,1.29,25.29,25.29,0,0,0-1.23,2.31L287.88,88a67.07,67.07,0,0,1-2.07,9.46c-1.33,4.14-5.32,10.2-5.32,10.2S269.54,110,263,109.11s-15.38-4.73-15.38-4.73c-.74-1.92-8.57-3.11-8.57-3.11-18.63-2.66-24.89-6.06-36-9.8S173.59,75.1,171.67,73.33a7.09,7.09,0,0,0-3.45-2c-1.63.34-.74,1.82-.74,1.82s.54.94,7.15,6.51,21.83,12.47,21.83,12.47,1.53.78.39,1.18a13.56,13.56,0,0,1-4,0c-16.66-2.56-29.52-12.27-30.65-12s-2,1.88-2,1.88,16.6,10.39,17.25,11.33-.4.64-.4.64L159.2,90.87c-.54,4.1,7,6.36,7,6.36a2.07,2.07,0,0,0,.3,3c4.09,5.86,21.19,7.69,21.43,7.84s6.71-.25,5.87.59a8.53,8.53,0,0,1-5.47,1.92c-2.81.15-7.89.1-7.89.1.25,2.26,2.76,3.15,3.8,4a5.86,5.86,0,0,1,1.48,1.77,18.68,18.68,0,0,0,3,6.16c3.85,2.17,3.65,3.26,3.65,3.26,1.58,4.19,3.74,5.22,5.81,6.45s8.19-.39,10.65-1.13,1.23.64,1.23.64c-4,4.43-7.49,4.78-7.49,4.78.25,2.32,4.19,4.48,5.32,4.83s5.37-.25,5.18.2a26.14,26.14,0,0,1-2.42,2.56c3.35,4.19,10,3.45,10,3.45,3.3,3.3,10.57,5.63,18.29,7.22Z" transform="translate(-159.17 -71.36)"/></svg>